Coordinates
version=1
nRows=6
nColumns=63
inDegrees=yes

Units are S.I. units (second, meters, Newtons, ...)
If the header above contains a line with 'inDegrees', this indicates whether rotational values are in degrees (yes) or radians (no).

endheader
time	pelvis_tilt	pelvis_list	pelvis_rotation	pelvis_tx	pelvis_ty	pelvis_tz	hip_flexion_r	hip_adduction_r	hip_rotation_r	knee_angle_r	knee_angle_r_beta	ankle_angle_r	subtalar_angle_r	mtp_angle_r	hip_flexion_l	hip_adduction_l	hip_rotation_l	knee_angle_l	knee_angle_l_beta	ankle_angle_l	subtalar_angle_l	mtp_angle_l	L5_S1_Flex_Ext	L5_S1_Lat_Bending	L5_S1_axial_rotation	L4_L5_Flex_Ext	L4_L5_Lat_Bending	L4_L5_axial_rotation	L3_L4_Flex_Ext	L3_L4_Lat_Bending	L3_L4_axial_rotation	L2_L3_Flex_Ext	L2_L3_Lat_Bending	L2_L3_axial_rotation	L1_L2_Flex_Ext	L1_L2_Lat_Bending	L1_L2_axial_rotation	L1_T12_Flex_Ext	L1_T12_Lat_Bending	L1_T12_axial_rotation	Abs_r3	Abs_r2	Abs_r1	Abs_t1	Abs_t2	neck_flexion	neck_bending	neck_rotation	arm_flex_r	arm_add_r	arm_rot_r	elbow_flex_r	pro_sup_r	wrist_flex_r	wrist_dev_r	arm_flex_l	arm_add_l	arm_rot_l	elbow_flex_l	pro_sup_l	wrist_flex_l	wrist_dev_l
0.840000	-3.929765	-5.844830	83.921422	0.304436	0.927129	0.694189	-2.146523	-3.560468	5.888969	4.531116	0.079083	28.816112	11.380973	0.000000	-4.380386	0.860378	-0.285110	0.561196	0.009795	28.522174	-8.299286	0.000000	-0.072245	-0.410061	2.591944	-0.134166	-0.545381	2.753940	-0.118691	-0.997021	2.753940	-0.082568	-0.997021	2.267951	-0.067086	-0.836195	2.105954	-0.041281	-0.635184	1.943958	-0.516037	-4.638687	14.415615	0.000000	0.000000	12.087376	5.882567	-7.201999	114.477620	-116.127367	99.785629	32.025075	55.990213	-1.021345	2.465843	-89.224473	-92.516993	50.436060	0.947782	60.220732	-19.215731	17.460584
0.860000	-3.844587	-5.926216	83.803044	0.304215	0.926889	0.695105	-1.913479	-3.486805	5.486881	4.733770	0.082620	28.818783	11.844985	0.000000	-4.296296	0.797923	-0.321969	0.545538	0.009521	28.207624	-8.543421	0.000000	-0.067708	-0.388870	2.611194	-0.125741	-0.517197	2.774394	-0.111237	-0.945499	2.774394	-0.077383	-0.945499	2.284795	-0.062874	-0.792984	2.121595	-0.038688	-0.602360	1.958396	-0.483631	-4.398978	14.522678	0.000000	0.000000	12.143300	5.729620	-6.768327	114.270917	-115.951711	100.052364	30.989770	55.050959	-0.764946	1.879198	-97.231669	-92.801347	43.909546	1.017524	62.285799	-17.606908	17.775092
0.880000	-3.751596	-6.003338	83.725068	0.303878	0.926674	0.695981	-1.697266	-3.408558	5.023742	4.938542	0.086194	28.787168	12.263657	0.000000	-4.205459	0.728717	-0.351863	0.557403	0.009729	27.887586	-8.750155	0.000000	-0.063875	-0.366400	2.621142	-0.118623	-0.487312	2.784963	-0.104941	-0.890866	2.784963	-0.073003	-0.890866	2.293499	-0.059315	-0.747164	2.129678	-0.036498	-0.567554	1.965856	-0.456256	-4.144794	14.578004	0.000000	0.000000	12.206353	5.574375	-6.343819	113.987118	-115.688305	100.682228	29.734338	53.746494	-0.496411	0.976863	-105.650252	-93.104277	37.168097	1.069107	65.450875	-15.741194	18.353733
0.900000	-3.650573	-6.078059	83.689281	0.303451	0.926496	0.696801	-1.495653	-3.323778	4.464126	5.141160	0.089730	28.737261	12.715355	0.000000	-4.103947	0.649862	-0.402324	0.597415	0.010427	27.595156	-8.866053	0.000000	-0.060061	-0.342742	2.617826	-0.111540	-0.455846	2.781440	-0.098675	-0.833342	2.781440	-0.068644	-0.833342	2.290598	-0.055773	-0.698919	2.126984	-0.034319	-0.530907	1.963370	-0.429012	-3.877161	14.559564	0.000000	0.000000	12.262917	5.430104	-5.896435	113.757934	-115.357593	101.392442	28.392712	52.458213	-0.231082	-0.116712	-114.199157	-93.379246	30.418164	1.069703	69.236991	-13.902796	19.193540
0.920000	-3.549032	-6.143657	83.696435	0.302955	0.926369	0.697553	-1.322978	-3.236841	3.912847	5.318775	0.092830	28.658562	13.097374	0.000000	-3.999272	0.569044	-0.424815	0.660035	0.011520	27.326045	-8.949927	0.000000	-0.056939	-0.318942	2.601597	-0.105741	-0.424192	2.764197	-0.093545	-0.775475	2.764197	-0.065075	-0.775475	2.276398	-0.052873	-0.650386	2.113798	-0.032535	-0.494040	1.951198	-0.406709	-3.607931	14.469303	0.000000	0.000000	12.298093	5.290673	-5.429875	113.629213	-114.977354	102.053013	27.049028	51.337813	0.052520	-1.314920	-122.558063	-93.594693	23.839200	1.022479	72.557089	-12.280261	20.114333
0.940000	-3.446944	-6.200308	83.753260	0.302409	0.926299	0.698230	-1.183953	-3.143861	3.420110	5.456995	0.095243	28.551405	13.363295	0.000000	-3.890419	0.484391	-0.396095	0.742445	0.012958	27.087134	-9.031213	0.000000	-0.054319	-0.295408	2.572779	-0.100875	-0.392892	2.733578	-0.089240	-0.718254	2.733578	-0.062081	-0.718254	2.251182	-0.050440	-0.602396	2.090383	-0.031038	-0.457587	1.929585	-0.387993	-3.341712	14.309027	0.000000	0.000000	12.309104	5.182391	-4.937238	113.569792	-114.552709	102.636661	25.755141	50.406203	0.357787	-2.581899	-130.333522	-93.713842	17.228444	0.999492	74.688704	-10.984936	20.816007
